<?xml version="1.0" encoding="utf-8"?>
<!-- Generator: Adobe Illustrator 24.0.0, SVG Export Plug-In . SVG Version: 6.00 Build 0)  -->
<svg version="1.1" id="Layer_1" xmlns="http://www.w3.org/2000/svg" xmlns:xlink="http://www.w3.org/1999/xlink" x="0px" y="0px"
	 viewBox="0 0 448 512" style="enable-background:new 0 0 448 512;" xml:space="preserve">
<style type="text/css">
	.st0{opacity:0.2;fill:#FFFFFF;}
	.st1{fill:#FFFFFF;}
</style>
<rect x="48" y="240" class="st0" width="352" height="224"/>
<path class="st1" d="M448,240v224c0,26.5-21.5,48-48,48H48c-26.5,0-48-21.5-48-48V240c0-26.5,21.5-48,48-48h32v-48
	C80,64.5,144.8-0.2,224.4,0S368,65.8,368,145.4V192h32C426.5,192,448,213.5,448,240z M128,192h192v-48c0-52.9-43.1-96-96-96
	s-96,43.1-96,96V192z M400,240H48v224h352V240z"/>
<g>
	<path class="st1" d="M154.1,406.9l65.5-50.7c17.7-14,24.9-22.7,24.9-34.5c0-12.1-8.4-19.2-20.9-19.2c-12.6,0-21.9,7.1-35.9,23.4
		l-32.3-26.8c19-24.6,37.7-38.2,71.6-38.2c38.7,0,65.2,22.9,65.2,56.6v0.5c0,29.1-15,43.8-42.6,64.3L219.1,404h74.9v39.1H154.1
		V406.9z"/>
</g>
</svg>
